{
	"patcher" : 	{
		"fileversion" : 1,
		"appversion" : 		{
			"major" : 8,
			"minor" : 1,
			"revision" : 3,
			"architecture" : "x64",
			"modernui" : 1
		}
,
		"classnamespace" : "box",
		"rect" : [ 176.0, 151.0, 911.0, 652.0 ],
		"bglocked" : 0,
		"openinpresentation" : 0,
		"default_fontsize" : 12.0,
		"default_fontface" : 0,
		"default_fontname" : "Arial",
		"gridonopen" : 1,
		"gridsize" : [ 15.0, 15.0 ],
		"gridsnaponopen" : 1,
		"objectsnaponopen" : 1,
		"statusbarvisible" : 2,
		"toolbarvisible" : 1,
		"lefttoolbarpinned" : 0,
		"toptoolbarpinned" : 0,
		"righttoolbarpinned" : 0,
		"bottomtoolbarpinned" : 0,
		"toolbars_unpinned_last_save" : 0,
		"tallnewobj" : 0,
		"boxanimatetime" : 200,
		"enablehscroll" : 1,
		"enablevscroll" : 1,
		"devicewidth" : 0.0,
		"description" : "",
		"digest" : "",
		"tags" : "",
		"style" : "",
		"subpatcher_template" : "",
		"boxes" : [ 			{
				"box" : 				{
					"id" : "obj-96",
					"maxclass" : "newobj",
					"numinlets" : 2,
					"numoutlets" : 1,
					"outlettype" : [ "" ],
					"patcher" : 					{
						"fileversion" : 1,
						"appversion" : 						{
							"major" : 8,
							"minor" : 1,
							"revision" : 3,
							"architecture" : "x64",
							"modernui" : 1
						}
,
						"classnamespace" : "box",
						"rect" : [ 0.0, 0.0, 640.0, 480.0 ],
						"bglocked" : 0,
						"openinpresentation" : 0,
						"default_fontsize" : 12.0,
						"default_fontface" : 0,
						"default_fontname" : "Arial",
						"gridonopen" : 1,
						"gridsize" : [ 15.0, 15.0 ],
						"gridsnaponopen" : 1,
						"objectsnaponopen" : 1,
						"statusbarvisible" : 2,
						"toolbarvisible" : 1,
						"lefttoolbarpinned" : 0,
						"toptoolbarpinned" : 0,
						"righttoolbarpinned" : 0,
						"bottomtoolbarpinned" : 0,
						"toolbars_unpinned_last_save" : 0,
						"tallnewobj" : 0,
						"boxanimatetime" : 200,
						"enablehscroll" : 1,
						"enablevscroll" : 1,
						"devicewidth" : 0.0,
						"description" : "",
						"digest" : "",
						"tags" : "",
						"style" : "",
						"subpatcher_template" : "",
						"boxes" : [ 							{
								"box" : 								{
									"id" : "obj-86",
									"maxclass" : "newobj",
									"numinlets" : 2,
									"numoutlets" : 1,
									"outlettype" : [ "" ],
									"patching_rect" : [ 472.5, 313.5, 54.0, 22.0 ],
									"text" : "pack 0 0"
								}

							}
, 							{
								"box" : 								{
									"id" : "obj-85",
									"maxclass" : "newobj",
									"numinlets" : 1,
									"numoutlets" : 2,
									"outlettype" : [ "int", "int" ],
									"patching_rect" : [ 476.0, 235.463684000000057, 67.0, 22.0 ],
									"text" : "unpack 0 0"
								}

							}
, 							{
								"box" : 								{
									"id" : "obj-84",
									"maxclass" : "newobj",
									"numinlets" : 2,
									"numoutlets" : 1,
									"outlettype" : [ "int" ],
									"patching_rect" : [ 476.0, 267.5, 29.5, 22.0 ],
									"text" : "+ 0"
								}

							}
, 							{
								"box" : 								{
									"id" : "obj-83",
									"maxclass" : "newobj",
									"numinlets" : 2,
									"numoutlets" : 1,
									"outlettype" : [ "int" ],
									"patching_rect" : [ 50.0, 279.0, 29.5, 22.0 ],
									"text" : "+ 0"
								}

							}
, 							{
								"box" : 								{
									"id" : "obj-71",
									"maxclass" : "newobj",
									"numinlets" : 17,
									"numoutlets" : 1,
									"outlettype" : [ "list" ],
									"patching_rect" : [ 476.0, 200.0, 371.941176470588061, 22.0 ],
									"text" : "funnel 17 48"
								}

							}
, 							{
								"box" : 								{
									"id" : "obj-72",
									"maxclass" : "newobj",
									"numinlets" : 18,
									"numoutlets" : 18,
									"outlettype" : [ "bang", "bang", "bang", "bang", "bang", "bang", "bang", "bang", "bang", "bang", "bang", "bang", "bang", "bang", "bang", "bang", "bang", "" ],
									"patching_rect" : [ 476.0, 162.0, 394.0, 22.0 ],
									"text" : "select 122 115 120 100 99 118 103 98 104 110 106 109 44 108 46 59 47"
								}

							}
, 							{
								"box" : 								{
									"fontname" : "Arial",
									"fontsize" : 13.0,
									"id" : "obj-73",
									"maxclass" : "number",
									"numinlets" : 1,
									"numoutlets" : 2,
									"outlettype" : [ "", "bang" ],
									"parameter_enable" : 0,
									"patching_rect" : [ 476.0, 130.0, 53.0, 23.0 ]
								}

							}
, 							{
								"box" : 								{
									"fontname" : "Arial",
									"fontsize" : 12.0,
									"id" : "obj-74",
									"maxclass" : "newobj",
									"numinlets" : 0,
									"numoutlets" : 4,
									"outlettype" : [ "int", "int", "int", "int" ],
									"patching_rect" : [ 476.0, 100.0, 50.5, 22.0 ],
									"text" : "keyup"
								}

							}
, 							{
								"box" : 								{
									"id" : "obj-70",
									"maxclass" : "newobj",
									"numinlets" : 1,
									"numoutlets" : 2,
									"outlettype" : [ "int", "int" ],
									"patching_rect" : [ 50.0, 227.5, 67.0, 22.0 ],
									"text" : "unpack 0 0"
								}

							}
, 							{
								"box" : 								{
									"id" : "obj-67",
									"maxclass" : "newobj",
									"numinlets" : 2,
									"numoutlets" : 1,
									"outlettype" : [ "" ],
									"patching_rect" : [ 50.0, 320.0, 54.0, 22.0 ],
									"text" : "pack 0 0"
								}

							}
, 							{
								"box" : 								{
									"id" : "obj-62",
									"maxclass" : "newobj",
									"numinlets" : 17,
									"numoutlets" : 1,
									"outlettype" : [ "list" ],
									"patching_rect" : [ 50.0, 200.0, 371.941176470588061, 22.0 ],
									"text" : "funnel 17 48"
								}

							}
, 							{
								"box" : 								{
									"id" : "obj-61",
									"maxclass" : "newobj",
									"numinlets" : 18,
									"numoutlets" : 18,
									"outlettype" : [ "bang", "bang", "bang", "bang", "bang", "bang", "bang", "bang", "bang", "bang", "bang", "bang", "bang", "bang", "bang", "bang", "bang", "" ],
									"patching_rect" : [ 50.0, 162.0, 394.0, 22.0 ],
									"text" : "select 122 115 120 100 99 118 103 98 104 110 106 109 44 108 46 59 47"
								}

							}
, 							{
								"box" : 								{
									"fontname" : "Arial",
									"fontsize" : 13.0,
									"id" : "obj-54",
									"maxclass" : "number",
									"numinlets" : 1,
									"numoutlets" : 2,
									"outlettype" : [ "", "bang" ],
									"parameter_enable" : 0,
									"patching_rect" : [ 50.0, 130.0, 53.0, 23.0 ]
								}

							}
, 							{
								"box" : 								{
									"fontname" : "Arial",
									"fontsize" : 12.0,
									"id" : "obj-57",
									"maxclass" : "newobj",
									"numinlets" : 0,
									"numoutlets" : 4,
									"outlettype" : [ "int", "int", "int", "int" ],
									"patching_rect" : [ 50.0, 100.0, 113.5, 22.0 ],
									"text" : "key"
								}

							}
, 							{
								"box" : 								{
									"comment" : "",
									"id" : "obj-93",
									"index" : 2,
									"maxclass" : "inlet",
									"numinlets" : 0,
									"numoutlets" : 1,
									"outlettype" : [ "int" ],
									"patching_rect" : [ 257.0, 40.0, 30.0, 30.0 ]
								}

							}
, 							{
								"box" : 								{
									"comment" : "",
									"id" : "obj-94",
									"index" : 1,
									"maxclass" : "inlet",
									"numinlets" : 0,
									"numoutlets" : 1,
									"outlettype" : [ "" ],
									"patching_rect" : [ 85.0, 40.0, 30.0, 30.0 ]
								}

							}
, 							{
								"box" : 								{
									"comment" : "",
									"id" : "obj-95",
									"index" : 1,
									"maxclass" : "outlet",
									"numinlets" : 1,
									"numoutlets" : 0,
									"patching_rect" : [ 255.25, 402.0, 30.0, 30.0 ]
								}

							}
 ],
						"lines" : [ 							{
								"patchline" : 								{
									"destination" : [ "obj-61", 0 ],
									"source" : [ "obj-54", 0 ]
								}

							}
, 							{
								"patchline" : 								{
									"destination" : [ "obj-54", 0 ],
									"source" : [ "obj-57", 3 ]
								}

							}
, 							{
								"patchline" : 								{
									"destination" : [ "obj-62", 16 ],
									"source" : [ "obj-61", 16 ]
								}

							}
, 							{
								"patchline" : 								{
									"destination" : [ "obj-62", 15 ],
									"source" : [ "obj-61", 15 ]
								}

							}
, 							{
								"patchline" : 								{
									"destination" : [ "obj-62", 14 ],
									"source" : [ "obj-61", 14 ]
								}

							}
, 							{
								"patchline" : 								{
									"destination" : [ "obj-62", 13 ],
									"source" : [ "obj-61", 13 ]
								}

							}
, 							{
								"patchline" : 								{
									"destination" : [ "obj-62", 12 ],
									"source" : [ "obj-61", 12 ]
								}

							}
, 							{
								"patchline" : 								{
									"destination" : [ "obj-62", 11 ],
									"source" : [ "obj-61", 11 ]
								}

							}
, 							{
								"patchline" : 								{
									"destination" : [ "obj-62", 10 ],
									"source" : [ "obj-61", 10 ]
								}

							}
, 							{
								"patchline" : 								{
									"destination" : [ "obj-62", 9 ],
									"source" : [ "obj-61", 9 ]
								}

							}
, 							{
								"patchline" : 								{
									"destination" : [ "obj-62", 8 ],
									"source" : [ "obj-61", 8 ]
								}

							}
, 							{
								"patchline" : 								{
									"destination" : [ "obj-62", 7 ],
									"source" : [ "obj-61", 7 ]
								}

							}
, 							{
								"patchline" : 								{
									"destination" : [ "obj-62", 6 ],
									"source" : [ "obj-61", 6 ]
								}

							}
, 							{
								"patchline" : 								{
									"destination" : [ "obj-62", 5 ],
									"source" : [ "obj-61", 5 ]
								}

							}
, 							{
								"patchline" : 								{
									"destination" : [ "obj-62", 4 ],
									"source" : [ "obj-61", 4 ]
								}

							}
, 							{
								"patchline" : 								{
									"destination" : [ "obj-62", 3 ],
									"source" : [ "obj-61", 3 ]
								}

							}
, 							{
								"patchline" : 								{
									"destination" : [ "obj-62", 2 ],
									"source" : [ "obj-61", 2 ]
								}

							}
, 							{
								"patchline" : 								{
									"destination" : [ "obj-62", 1 ],
									"source" : [ "obj-61", 1 ]
								}

							}
, 							{
								"patchline" : 								{
									"destination" : [ "obj-62", 0 ],
									"source" : [ "obj-61", 0 ]
								}

							}
, 							{
								"patchline" : 								{
									"destination" : [ "obj-70", 0 ],
									"source" : [ "obj-62", 0 ]
								}

							}
, 							{
								"patchline" : 								{
									"destination" : [ "obj-95", 0 ],
									"source" : [ "obj-67", 0 ]
								}

							}
, 							{
								"patchline" : 								{
									"destination" : [ "obj-83", 0 ],
									"source" : [ "obj-70", 0 ]
								}

							}
, 							{
								"patchline" : 								{
									"destination" : [ "obj-85", 0 ],
									"source" : [ "obj-71", 0 ]
								}

							}
, 							{
								"patchline" : 								{
									"destination" : [ "obj-71", 16 ],
									"source" : [ "obj-72", 16 ]
								}

							}
, 							{
								"patchline" : 								{
									"destination" : [ "obj-71", 15 ],
									"source" : [ "obj-72", 15 ]
								}

							}
, 							{
								"patchline" : 								{
									"destination" : [ "obj-71", 14 ],
									"source" : [ "obj-72", 14 ]
								}

							}
, 							{
								"patchline" : 								{
									"destination" : [ "obj-71", 13 ],
									"source" : [ "obj-72", 13 ]
								}

							}
, 							{
								"patchline" : 								{
									"destination" : [ "obj-71", 12 ],
									"source" : [ "obj-72", 12 ]
								}

							}
, 							{
								"patchline" : 								{
									"destination" : [ "obj-71", 11 ],
									"source" : [ "obj-72", 11 ]
								}

							}
, 							{
								"patchline" : 								{
									"destination" : [ "obj-71", 10 ],
									"source" : [ "obj-72", 10 ]
								}

							}
, 							{
								"patchline" : 								{
									"destination" : [ "obj-71", 9 ],
									"source" : [ "obj-72", 9 ]
								}

							}
, 							{
								"patchline" : 								{
									"destination" : [ "obj-71", 8 ],
									"source" : [ "obj-72", 8 ]
								}

							}
, 							{
								"patchline" : 								{
									"destination" : [ "obj-71", 7 ],
									"source" : [ "obj-72", 7 ]
								}

							}
, 							{
								"patchline" : 								{
									"destination" : [ "obj-71", 6 ],
									"source" : [ "obj-72", 6 ]
								}

							}
, 							{
								"patchline" : 								{
									"destination" : [ "obj-71", 5 ],
									"source" : [ "obj-72", 5 ]
								}

							}
, 							{
								"patchline" : 								{
									"destination" : [ "obj-71", 4 ],
									"source" : [ "obj-72", 4 ]
								}

							}
, 							{
								"patchline" : 								{
									"destination" : [ "obj-71", 3 ],
									"source" : [ "obj-72", 3 ]
								}

							}
, 							{
								"patchline" : 								{
									"destination" : [ "obj-71", 2 ],
									"source" : [ "obj-72", 2 ]
								}

							}
, 							{
								"patchline" : 								{
									"destination" : [ "obj-71", 1 ],
									"source" : [ "obj-72", 1 ]
								}

							}
, 							{
								"patchline" : 								{
									"destination" : [ "obj-71", 0 ],
									"source" : [ "obj-72", 0 ]
								}

							}
, 							{
								"patchline" : 								{
									"destination" : [ "obj-72", 0 ],
									"source" : [ "obj-73", 0 ]
								}

							}
, 							{
								"patchline" : 								{
									"destination" : [ "obj-73", 0 ],
									"source" : [ "obj-74", 3 ]
								}

							}
, 							{
								"patchline" : 								{
									"destination" : [ "obj-67", 0 ],
									"source" : [ "obj-83", 0 ]
								}

							}
, 							{
								"patchline" : 								{
									"destination" : [ "obj-86", 0 ],
									"source" : [ "obj-84", 0 ]
								}

							}
, 							{
								"patchline" : 								{
									"destination" : [ "obj-84", 0 ],
									"source" : [ "obj-85", 0 ]
								}

							}
, 							{
								"patchline" : 								{
									"destination" : [ "obj-95", 0 ],
									"source" : [ "obj-86", 0 ]
								}

							}
, 							{
								"patchline" : 								{
									"destination" : [ "obj-83", 1 ],
									"order" : 1,
									"source" : [ "obj-93", 0 ]
								}

							}
, 							{
								"patchline" : 								{
									"destination" : [ "obj-84", 1 ],
									"order" : 0,
									"source" : [ "obj-93", 0 ]
								}

							}
, 							{
								"patchline" : 								{
									"destination" : [ "obj-67", 1 ],
									"source" : [ "obj-94", 0 ]
								}

							}
 ]
					}
,
					"patching_rect" : [ 511.749969999999848, 277.536315999999943, 116.0, 22.0 ],
					"saved_object_attributes" : 					{
						"description" : "",
						"digest" : "",
						"globalpatchername" : "",
						"tags" : ""
					}
,
					"text" : "p KeyboardMapping"
				}

			}
, 			{
				"box" : 				{
					"id" : "obj-92",
					"maxclass" : "newobj",
					"numinlets" : 0,
					"numoutlets" : 2,
					"outlettype" : [ "", "" ],
					"patcher" : 					{
						"fileversion" : 1,
						"appversion" : 						{
							"major" : 8,
							"minor" : 1,
							"revision" : 3,
							"architecture" : "x64",
							"modernui" : 1
						}
,
						"classnamespace" : "box",
						"rect" : [ 59.0, 104.0, 640.0, 480.0 ],
						"bglocked" : 0,
						"openinpresentation" : 0,
						"default_fontsize" : 12.0,
						"default_fontface" : 0,
						"default_fontname" : "Arial",
						"gridonopen" : 1,
						"gridsize" : [ 15.0, 15.0 ],
						"gridsnaponopen" : 1,
						"objectsnaponopen" : 1,
						"statusbarvisible" : 2,
						"toolbarvisible" : 1,
						"lefttoolbarpinned" : 0,
						"toptoolbarpinned" : 0,
						"righttoolbarpinned" : 0,
						"bottomtoolbarpinned" : 0,
						"toolbars_unpinned_last_save" : 0,
						"tallnewobj" : 0,
						"boxanimatetime" : 200,
						"enablehscroll" : 1,
						"enablevscroll" : 1,
						"devicewidth" : 0.0,
						"description" : "",
						"digest" : "",
						"tags" : "",
						"style" : "",
						"subpatcher_template" : "",
						"boxes" : [ 							{
								"box" : 								{
									"id" : "obj-45",
									"maxclass" : "newobj",
									"numinlets" : 1,
									"numoutlets" : 1,
									"outlettype" : [ "bang" ],
									"patching_rect" : [ 98.333344000000011, 100.0, 58.0, 22.0 ],
									"text" : "loadbang"
								}

							}
, 							{
								"box" : 								{
									"fontname" : "Arial",
									"fontsize" : 13.0,
									"id" : "obj-30",
									"maxclass" : "newobj",
									"numinlets" : 2,
									"numoutlets" : 1,
									"outlettype" : [ "" ],
									"patching_rect" : [ 93.333344000000011, 229.5, 55.0, 23.0 ],
									"text" : "midiinfo"
								}

							}
, 							{
								"box" : 								{
									"fontname" : "Arial",
									"fontsize" : 13.0,
									"id" : "obj-41",
									"maxclass" : "newobj",
									"numinlets" : 2,
									"numoutlets" : 1,
									"outlettype" : [ "" ],
									"patching_rect" : [ 50.0, 365.0, 55.0, 23.0 ],
									"text" : "midiinfo"
								}

							}
, 							{
								"box" : 								{
									"id" : "obj-42",
									"maxclass" : "button",
									"numinlets" : 1,
									"numoutlets" : 1,
									"outlettype" : [ "bang" ],
									"parameter_enable" : 0,
									"patching_rect" : [ 85.0, 329.5, 20.0, 20.0 ]
								}

							}
, 							{
								"box" : 								{
									"fontname" : "Arial",
									"fontsize" : 13.0,
									"id" : "obj-43",
									"maxclass" : "message",
									"numinlets" : 2,
									"numoutlets" : 1,
									"outlettype" : [ "" ],
									"patching_rect" : [ 50.0, 298.5, 35.0, 23.0 ],
									"text" : "1"
								}

							}
, 							{
								"box" : 								{
									"fontname" : "Arial",
									"fontsize" : 13.0,
									"id" : "obj-44",
									"maxclass" : "message",
									"numinlets" : 2,
									"numoutlets" : 1,
									"outlettype" : [ "" ],
									"patching_rect" : [ 92.333344000000011, 191.0, 70.0, 23.0 ],
									"text" : "controllers"
								}

							}
, 							{
								"box" : 								{
									"comment" : "",
									"id" : "obj-90",
									"index" : 1,
									"maxclass" : "outlet",
									"numinlets" : 1,
									"numoutlets" : 0,
									"patching_rect" : [ 50.000000000000014, 448.0, 30.0, 30.0 ]
								}

							}
, 							{
								"box" : 								{
									"comment" : "",
									"id" : "obj-91",
									"index" : 2,
									"maxclass" : "outlet",
									"numinlets" : 1,
									"numoutlets" : 0,
									"patching_rect" : [ 93.333344000000011, 448.0, 30.0, 30.0 ]
								}

							}
 ],
						"lines" : [ 							{
								"patchline" : 								{
									"destination" : [ "obj-91", 0 ],
									"source" : [ "obj-30", 0 ]
								}

							}
, 							{
								"patchline" : 								{
									"destination" : [ "obj-90", 0 ],
									"source" : [ "obj-41", 0 ]
								}

							}
, 							{
								"patchline" : 								{
									"destination" : [ "obj-41", 0 ],
									"source" : [ "obj-42", 0 ]
								}

							}
, 							{
								"patchline" : 								{
									"destination" : [ "obj-41", 0 ],
									"midpoints" : [ 59.5, 331.0, 59.5, 331.0 ],
									"source" : [ "obj-43", 0 ]
								}

							}
, 							{
								"patchline" : 								{
									"destination" : [ "obj-30", 0 ],
									"source" : [ "obj-44", 0 ]
								}

							}
, 							{
								"patchline" : 								{
									"destination" : [ "obj-43", 0 ],
									"order" : 1,
									"source" : [ "obj-45", 0 ]
								}

							}
, 							{
								"patchline" : 								{
									"destination" : [ "obj-44", 0 ],
									"order" : 0,
									"source" : [ "obj-45", 0 ]
								}

							}
 ]
					}
,
					"patching_rect" : [ 229.5, 18.463684000000057, 79.0, 22.0 ],
					"saved_object_attributes" : 					{
						"description" : "",
						"digest" : "",
						"globalpatchername" : "",
						"tags" : ""
					}
,
					"text" : "p MidiControl"
				}

			}
, 			{
				"box" : 				{
					"id" : "obj-87",
					"items" : [ 1, "Acoustic", "Grand", "Piano", ",", 2, "Bright", "Acoustic", "Piano", ",", 3, "Electric", "Grand", "Piano", ",", 4, "Honky-tonk", "Piano", ",", 5, "Electric", "Piano", 1, ",", 6, "Electric", "Piano", 2, ",", 7, "Harpsichord", ",", 8, "Clavinet", ",", 9, "Celesta", ",", 10, "Glockenspiel", ",", 11, "Music", "Box", ",", 12, "Vibraphone", ",", 13, "Marimba", ",", 14, "Xylophone", ",", 15, "Tubular", "Bells", ",", 16, "Dulcimer", ",", 17, "Drawbar", "Organ", ",", 18, "Percussive", "Organ", ",", 19, "Rock", "Organ", ",", 20, "Church", "Organ", ",", 21, "Reed", "Organ", ",", 22, "Accordion", ",", 23, "Harmonica", ",", 24, "Tango", "Accordion", ",", 25, "Acoustic", "Guitar", "(nylon)", ",", 26, "Acoustic", "Guitar", "(steel)", ",", 27, "Electric", "Guitar", "(jazz)", ",", 28, "Electric", "Guitar", "(clean)", ",", 29, "Electric", "Guitar", "(muted)", ",", 30, "Overdriven", "Guitar", ",", 31, "Distortion", "Guitar", ",", 32, "Guitar", "harmonics", ",", 33, "Acoustic", "Bass", ",", 34, "Electric", "Bass", "(finger)", ",", 35, "Electric", "Bass", "(pick)", ",", 36, "Fretless", "Bass", ",", 37, "Slap", "Bass", 1, ",", 38, "Slap", "Bass", 2, ",", 39, "Synth", "Bass", 1, ",", 40, "Synth", "Bass", 2, ",", 41, "Violin", ",", 42, "Viola", ",", 43, "Cello", ",", 44, "Contrabass", ",", 45, "Tremolo", "Strings", ",", 46, "Pizzicato", "Strings", ",", 47, "Orchestral", "Harp", ",", 48, "Timpani", ",", 49, "String", "Ensemble", 1, ",", 50, "String", "Ensemble", 2, ",", 51, "Synth", "Strings", 1, ",", 52, "Synth", "Strings", 2, ",", 53, "Choir", "Aahs", ",", 54, "Voice", "Oohs", ",", 55, "Synth", "Voice", ",", 56, "Orchestra", "Hit", ",", 57, "Trumpet", ",", 58, "Trombone", ",", 59, "Tuba", ",", 60, "Muted", "Trumpet", ",", 61, "French", "Horn", ",", 62, "Brass", "Section", ",", 63, "Synth", "Brass", 1, ",", 64, "Synth", "Brass", 2, ",", 65, "Soprano", "Sax", ",", 66, "Alto", "Sax", ",", 67, "Tenor", "Sax", ",", 68, "Baritone", "Sax", ",", 69, "Oboe", ",", 70, "English", "Horn", ",", 71, "Bassoon", ",", 72, "Clarinet", ",", 73, "Piccolo", ",", 74, "Flute", ",", 75, "Recorder", ",", 76, "Pan", "Flute", ",", 77, "Blown", "Bottle", ",", 78, "Shakuhachi", ",", 79, "Whistle", ",", 80, "Ocarina", ",", 81, "Lead", 1, "(square)", ",", 82, "Lead", 2, "(sawtooth)", ",", 83, "Lead", 3, "(calliope)", ",", 84, "Lead", 4, "(chiff)", ",", 85, "Lead", 5, "(charang)", ",", 86, "Lead", 6, "(voice)", ",", 87, "Lead", 7, "(fifths)", ",", 88, "Lead", 8, "(bass", "+", "lead)", ",", 89, "Pad", 1, "(new", "age)", ",", 90, "Pad", 2, "(warm)", ",", 91, "Pad", 3, "(polysynth)", ",", 92, "Pad", 4, "(choir)", ",", 93, "Pad", 5, "(bowed)", ",", 94, "Pad", 6, "(metallic)", ",", 95, "Pad", 7, "(halo)", ",", 96, "Pad", 8, "(sweep)", ",", 97, "FX", 1, "(rain)", ",", 98, "FX", 2, "(soundtrack)", ",", 99, "FX", 3, "(crystal)", ",", 100, "FX", 4, "(atmosphere)", ",", 101, "FX", 5, "(brightness)", ",", 102, "FX", 6, "(goblins)", ",", 103, "FX", 7, "(echoes)", ",", 104, "FX", 8, "(sci-fi)", ",", 105, "Sitar", ",", 106, "Banjo", ",", 107, "Shamisen", ",", 108, "Koto", ",", 109, "Kalimba", ",", 110, "Bag", "pipe", ",", 111, "Fiddle", ",", 112, "Shanai", ",", 113, "Tinkle", "Bell", ",", 114, "Agogo", ",", 115, "Steel", "Drums", ",", 116, "Woodblock", ",", 117, "Taiko", "Drum", ",", 118, "Melodic", "Tom", ",", 119, "Synth", "Drum", ",", 120, "Reverse", "Cymbal", ",", 121, "Guitar", "Fret", "Noise", ",", 122, "Breath", "Noise", ",", 123, "Seashore", ",", 124, "Bird", "Tweet", ",", 125, "Telephone", "Ring", ",", 126, "Helicopter", ",", 127, "Applause", ",", 128, "Gunshot" ],
					"maxclass" : "umenu",
					"numinlets" : 1,
					"numoutlets" : 3,
					"outlettype" : [ "int", "", "" ],
					"parameter_enable" : 0,
					"patching_rect" : [ 553.749969999999848, 429.5, 160.0, 22.0 ],
					"presentation" : 1,
					"presentation_rect" : [ 401.416625999999951, 7.5, 160.0, 22.0 ]
				}

			}
, 			{
				"box" : 				{
					"id" : "obj-80",
					"maxclass" : "newobj",
					"numinlets" : 2,
					"numoutlets" : 1,
					"outlettype" : [ "int" ],
					"patching_rect" : [ 608.749969999999848, 205.0, 30.0, 22.0 ],
					"text" : "* 12"
				}

			}
, 			{
				"box" : 				{
					"id" : "obj-79",
					"maxclass" : "newobj",
					"numinlets" : 2,
					"numoutlets" : 1,
					"outlettype" : [ "int" ],
					"patching_rect" : [ 608.749969999999848, 175.0, 29.5, 22.0 ],
					"text" : "- 3"
				}

			}
, 			{
				"box" : 				{
					"id" : "obj-78",
					"maxclass" : "number",
					"numinlets" : 1,
					"numoutlets" : 2,
					"outlettype" : [ "", "bang" ],
					"parameter_enable" : 0,
					"patching_rect" : [ 608.749969999999848, 146.0, 50.0, 22.0 ],
					"presentation" : 1,
					"presentation_rect" : [ 132.749969999999848, 6.5, 50.0, 22.0 ]
				}

			}
, 			{
				"box" : 				{
					"id" : "obj-66",
					"maxclass" : "message",
					"numinlets" : 2,
					"numoutlets" : 1,
					"outlettype" : [ "" ],
					"patching_rect" : [ 470.5, 183.927368000000115, 50.0, 22.0 ],
					"text" : "111"
				}

			}
, 			{
				"box" : 				{
					"id" : "obj-64",
					"maxclass" : "slider",
					"numinlets" : 1,
					"numoutlets" : 1,
					"outlettype" : [ "" ],
					"parameter_enable" : 0,
					"patching_rect" : [ 512.5, 18.463684000000057, 20.0, 140.0 ],
					"presentation" : 1,
					"presentation_rect" : [ 8.5, 8.5, 29.0, 136.5 ]
				}

			}
, 			{
				"box" : 				{
					"id" : "obj-52",
					"maxclass" : "newobj",
					"numinlets" : 2,
					"numoutlets" : 1,
					"outlettype" : [ "" ],
					"patching_rect" : [ 481.25, 408.5, 54.0, 22.0 ],
					"text" : "pack 0 0"
				}

			}
, 			{
				"box" : 				{
					"id" : "obj-50",
					"maxclass" : "message",
					"numinlets" : 2,
					"numoutlets" : 1,
					"outlettype" : [ "" ],
					"patching_rect" : [ 753.749970000000076, 408.5, 50.0, 22.0 ],
					"text" : "0"
				}

			}
, 			{
				"box" : 				{
					"id" : "obj-49",
					"maxclass" : "message",
					"numinlets" : 2,
					"numoutlets" : 1,
					"outlettype" : [ "" ],
					"patching_rect" : [ 362.749969999999962, 408.5, 50.0, 22.0 ],
					"text" : "37"
				}

			}
, 			{
				"box" : 				{
					"id" : "obj-46",
					"maxclass" : "kslider",
					"mode" : 2,
					"numinlets" : 2,
					"numoutlets" : 2,
					"outlettype" : [ "int", "int" ],
					"parameter_enable" : 0,
					"patching_rect" : [ 432.416625999999951, 329.0, 336.0, 53.0 ],
					"presentation" : 1,
					"presentation_rect" : [ 57.416625999999951, 41.0, 504.0, 76.0 ]
				}

			}
, 			{
				"box" : 				{
					"fontface" : 0,
					"fontname" : "Arial",
					"fontsize" : 13.0,
					"id" : "obj-29",
					"items" : [ "to MaxMSP 1", ",", "to MaxMSP 2" ],
					"maxclass" : "umenu",
					"numinlets" : 1,
					"numoutlets" : 3,
					"outlettype" : [ "int", "", "" ],
					"parameter_enable" : 0,
					"patching_rect" : [ 265.5, 104.5, 158.0, 23.0 ],
					"presentation" : 1,
					"presentation_rect" : [ 132.5, 135.0, 158.0, 23.0 ]
				}

			}
, 			{
				"box" : 				{
					"fontname" : "Arial",
					"fontsize" : 13.0,
					"id" : "obj-39",
					"maxclass" : "newobj",
					"numinlets" : 1,
					"numoutlets" : 1,
					"outlettype" : [ "int" ],
					"patching_rect" : [ 335.0, 145.0, 42.0, 23.0 ],
					"text" : "midiin"
				}

			}
, 			{
				"box" : 				{
					"fontface" : 0,
					"fontname" : "Arial",
					"fontsize" : 13.0,
					"id" : "obj-40",
					"items" : [ "AU DLS Synth 1", ",", "from MaxMSP 1", ",", "from MaxMSP 2" ],
					"maxclass" : "umenu",
					"numinlets" : 1,
					"numoutlets" : 3,
					"outlettype" : [ "int", "", "" ],
					"parameter_enable" : 0,
					"patching_rect" : [ 207.166655999999989, 229.0, 158.0, 23.0 ],
					"presentation" : 1,
					"presentation_rect" : [ 403.416625999999951, 135.0, 158.0, 23.0 ]
				}

			}
, 			{
				"box" : 				{
					"fontname" : "Arial",
					"fontsize" : 13.0,
					"id" : "obj-26",
					"maxclass" : "message",
					"numinlets" : 2,
					"numoutlets" : 1,
					"outlettype" : [ "" ],
					"patching_rect" : [ 642.416625999999951, 565.536315999999943, 140.770111000000014, 23.0 ],
					"text" : "midievent 144 37 0"
				}

			}
, 			{
				"box" : 				{
					"fontname" : "Arial",
					"fontsize" : 13.0,
					"id" : "obj-18",
					"linecount" : 2,
					"maxclass" : "message",
					"numinlets" : 2,
					"numoutlets" : 1,
					"outlettype" : [ "" ],
					"patching_rect" : [ 535.74998400000004, 590.536315999999943, 76.333343999999997, 38.0 ],
					"text" : "144 37 111 144 37 0"
				}

			}
, 			{
				"box" : 				{
					"id" : "obj-15",
					"items" : [ 1, ",", 2, ",", 3, ",", 4, ",", 5, ",", 6, ",", 7, ",", 8, ",", 9, ",", 10, ",", 11, ",", 12, ",", 13, ",", 14, ",", 15, ",", 16 ],
					"maxclass" : "umenu",
					"numinlets" : 1,
					"numoutlets" : 3,
					"outlettype" : [ "int", "", "" ],
					"parameter_enable" : 0,
					"patching_rect" : [ 672.5, 482.072631999999942, 50.0, 22.0 ]
				}

			}
, 			{
				"box" : 				{
					"fontname" : "Arial",
					"fontsize" : 13.0,
					"id" : "obj-11",
					"maxclass" : "newobj",
					"numinlets" : 1,
					"numoutlets" : 0,
					"patching_rect" : [ 256.5, 590.5, 52.0, 23.0 ],
					"text" : "midiout"
				}

			}
, 			{
				"box" : 				{
					"fontname" : "Arial",
					"fontsize" : 13.0,
					"id" : "obj-10",
					"maxclass" : "newobj",
					"numinlets" : 2,
					"numoutlets" : 1,
					"outlettype" : [ "" ],
					"patching_rect" : [ 582.416625999999951, 560.536315999999943, 47.0, 23.0 ],
					"text" : "thresh"
				}

			}
, 			{
				"box" : 				{
					"fontname" : "Arial",
					"fontsize" : 13.0,
					"id" : "obj-23",
					"maxclass" : "newobj",
					"numinlets" : 7,
					"numoutlets" : 2,
					"outlettype" : [ "int", "" ],
					"patching_rect" : [ 334.0, 511.536315999999943, 377.0, 23.0 ],
					"text" : "midiformat"
				}

			}
, 			{
				"box" : 				{
					"fontname" : "Arial",
					"fontsize" : 13.0,
					"id" : "obj-32",
					"maxclass" : "message",
					"numinlets" : 2,
					"numoutlets" : 1,
					"outlettype" : [ "" ],
					"patching_rect" : [ 413.0, 476.072631999999942, 36.0, 23.0 ],
					"text" : "60 0"
				}

			}
, 			{
				"box" : 				{
					"fontname" : "Arial",
					"fontsize" : 13.0,
					"id" : "obj-33",
					"maxclass" : "message",
					"numinlets" : 2,
					"numoutlets" : 1,
					"outlettype" : [ "" ],
					"patching_rect" : [ 626.249969999999962, 476.072631999999942, 32.5, 23.0 ],
					"text" : "0"
				}

			}
, 			{
				"box" : 				{
					"fontname" : "Arial",
					"fontsize" : 13.0,
					"id" : "obj-36",
					"maxclass" : "message",
					"numinlets" : 2,
					"numoutlets" : 1,
					"outlettype" : [ "" ],
					"patching_rect" : [ 557.666655999999989, 476.072631999999942, 32.5, 23.0 ],
					"text" : "127"
				}

			}
, 			{
				"box" : 				{
					"id" : "obj-101",
					"maxclass" : "comment",
					"numinlets" : 1,
					"numoutlets" : 0,
					"patching_rect" : [ 13.0, 449.0, 150.0, 20.0 ],
					"presentation" : 1,
					"presentation_rect" : [ 326.5, 136.5, 62.0, 20.0 ],
					"text" : "midi out:"
				}

			}
, 			{
				"box" : 				{
					"id" : "obj-104",
					"maxclass" : "comment",
					"numinlets" : 1,
					"numoutlets" : 0,
					"patching_rect" : [ 9.666595999999913, 414.5, 150.0, 20.0 ],
					"presentation" : 1,
					"presentation_rect" : [ 326.5, 8.5, 62.0, 20.0 ],
					"text" : "Voice:"
				}

			}
, 			{
				"box" : 				{
					"id" : "obj-103",
					"maxclass" : "comment",
					"numinlets" : 1,
					"numoutlets" : 0,
					"patching_rect" : [ 9.666595999999913, 345.5, 150.0, 20.0 ],
					"presentation" : 1,
					"presentation_rect" : [ 60.416625999999951, 6.5, 62.0, 20.0 ],
					"text" : "Octave:"
				}

			}
, 			{
				"box" : 				{
					"id" : "obj-102",
					"maxclass" : "comment",
					"numinlets" : 1,
					"numoutlets" : 0,
					"patching_rect" : [ 9.666595999999913, 375.0, 150.0, 20.0 ],
					"presentation" : 1,
					"presentation_rect" : [ 57.416625999999951, 136.5, 62.0, 20.0 ],
					"text" : "midi in:"
				}

			}
, 			{
				"box" : 				{
					"angle" : 270.0,
					"bgcolor" : [ 0.996078431372549, 0.996078431372549, 0.996078431372549, 1.0 ],
					"bordercolor" : [ 0.0, 0.0, 0.0, 1.0 ],
					"id" : "obj-107",
					"maxclass" : "panel",
					"mode" : 0,
					"numinlets" : 1,
					"numoutlets" : 0,
					"patching_rect" : [ 13.0, 482.072631999999942, 128.0, 128.0 ],
					"presentation" : 1,
					"presentation_rect" : [ 0.0, -2.0, 573.0, 175.0 ],
					"proportion" : 0.5
				}

			}
 ],
		"lines" : [ 			{
				"patchline" : 				{
					"destination" : [ "obj-18", 1 ],
					"source" : [ "obj-10", 0 ]
				}

			}
, 			{
				"patchline" : 				{
					"destination" : [ "obj-23", 6 ],
					"source" : [ "obj-15", 1 ]
				}

			}
, 			{
				"patchline" : 				{
					"destination" : [ "obj-10", 0 ],
					"order" : 0,
					"source" : [ "obj-23", 0 ]
				}

			}
, 			{
				"patchline" : 				{
					"destination" : [ "obj-11", 0 ],
					"order" : 1,
					"source" : [ "obj-23", 0 ]
				}

			}
, 			{
				"patchline" : 				{
					"destination" : [ "obj-26", 1 ],
					"midpoints" : [ 701.5, 555.036315999999943, 773.686736999999994, 555.036315999999943 ],
					"source" : [ "obj-23", 1 ]
				}

			}
, 			{
				"patchline" : 				{
					"destination" : [ "obj-39", 0 ],
					"source" : [ "obj-29", 1 ]
				}

			}
, 			{
				"patchline" : 				{
					"destination" : [ "obj-23", 1 ],
					"source" : [ "obj-32", 0 ]
				}

			}
, 			{
				"patchline" : 				{
					"destination" : [ "obj-23", 5 ],
					"source" : [ "obj-33", 0 ]
				}

			}
, 			{
				"patchline" : 				{
					"destination" : [ "obj-23", 4 ],
					"source" : [ "obj-36", 0 ]
				}

			}
, 			{
				"patchline" : 				{
					"destination" : [ "obj-11", 0 ],
					"source" : [ "obj-40", 1 ]
				}

			}
, 			{
				"patchline" : 				{
					"destination" : [ "obj-49", 1 ],
					"order" : 1,
					"source" : [ "obj-46", 0 ]
				}

			}
, 			{
				"patchline" : 				{
					"destination" : [ "obj-50", 1 ],
					"order" : 0,
					"source" : [ "obj-46", 1 ]
				}

			}
, 			{
				"patchline" : 				{
					"destination" : [ "obj-52", 1 ],
					"order" : 1,
					"source" : [ "obj-46", 1 ]
				}

			}
, 			{
				"patchline" : 				{
					"destination" : [ "obj-52", 0 ],
					"order" : 0,
					"source" : [ "obj-46", 0 ]
				}

			}
, 			{
				"patchline" : 				{
					"destination" : [ "obj-23", 0 ],
					"source" : [ "obj-52", 0 ]
				}

			}
, 			{
				"patchline" : 				{
					"destination" : [ "obj-66", 1 ],
					"order" : 1,
					"source" : [ "obj-64", 0 ]
				}

			}
, 			{
				"patchline" : 				{
					"destination" : [ "obj-96", 0 ],
					"order" : 0,
					"source" : [ "obj-64", 0 ]
				}

			}
, 			{
				"patchline" : 				{
					"destination" : [ "obj-79", 0 ],
					"source" : [ "obj-78", 0 ]
				}

			}
, 			{
				"patchline" : 				{
					"destination" : [ "obj-80", 0 ],
					"source" : [ "obj-79", 0 ]
				}

			}
, 			{
				"patchline" : 				{
					"destination" : [ "obj-96", 1 ],
					"source" : [ "obj-80", 0 ]
				}

			}
, 			{
				"patchline" : 				{
					"destination" : [ "obj-23", 3 ],
					"source" : [ "obj-87", 0 ]
				}

			}
, 			{
				"patchline" : 				{
					"destination" : [ "obj-29", 0 ],
					"source" : [ "obj-92", 1 ]
				}

			}
, 			{
				"patchline" : 				{
					"destination" : [ "obj-40", 0 ],
					"source" : [ "obj-92", 0 ]
				}

			}
, 			{
				"patchline" : 				{
					"destination" : [ "obj-46", 0 ],
					"source" : [ "obj-96", 0 ]
				}

			}
 ],
		"dependency_cache" : [  ],
		"autosave" : 0
	}

}
